<svg width="800" height="400" viewBox="0 0 800 400" fill="none" xmlns="http://www.w3.org/2000/svg">
<rect width="800" height="400" fill="white"/>
<path d="M297.05 211.775H301.8L307.65 228H303.7L302.25 223.725H296.325L294.9 228H291.05L297.05 211.775ZM301.4 221.125L299.35 215.025H299.25L297.2 221.125H301.4ZM309.299 215.9H318.124V218.3H312.949V228H309.299V215.9ZM320.212 215.9H323.662V217.1C323.879 216.567 324.304 216.192 324.937 215.975C325.571 215.758 326.512 215.65 327.762 215.65C328.812 215.65 329.654 215.733 330.287 215.9C330.937 216.067 331.429 216.333 331.762 216.7C332.079 217.067 332.296 217.475 332.412 217.925C332.529 218.358 332.587 218.958 332.587 219.725V223.7C332.587 224.9 332.412 225.825 332.062 226.475C331.712 227.125 331.171 227.583 330.437 227.85C329.721 228.117 328.737 228.25 327.487 228.25C326.287 228.25 325.421 228.15 324.887 227.95C324.354 227.75 324.012 227.358 323.862 226.775V233.2H320.212V215.9ZM326.362 225.975C327.079 225.975 327.621 225.925 327.987 225.825C328.354 225.725 328.604 225.55 328.737 225.3C328.871 225.05 328.937 224.675 328.937 224.175V219.7C328.937 219.15 328.879 218.758 328.762 218.525C328.646 218.275 328.412 218.108 328.062 218.025C327.712 217.942 327.137 217.9 326.337 217.9C325.654 217.9 325.129 217.958 324.762 218.075C324.412 218.192 324.171 218.375 324.037 218.625C323.921 218.875 323.862 219.233 323.862 219.7V224.175C323.862 224.675 323.921 225.05 324.037 225.3C324.171 225.55 324.412 225.725 324.762 225.825C325.112 225.925 325.646 225.975 326.362 225.975ZM341.522 228.25C337.238 228.25 335.097 226.942 335.097 224.325V219.975C335.097 218.458 335.58 217.358 336.547 216.675C337.53 215.992 339.038 215.65 341.072 215.65C342.988 215.65 344.388 215.983 345.272 216.65C346.172 217.3 346.622 218.408 346.622 219.975V222.925H338.772V224.025C338.772 224.725 339.022 225.225 339.522 225.525C340.022 225.825 340.922 225.975 342.222 225.975C343.422 225.975 344.772 225.8 346.272 225.45V227.775C344.788 228.092 343.205 228.25 341.522 228.25ZM343.147 220.85V219.1C343.147 218.7 342.98 218.4 342.647 218.2C342.33 218 341.788 217.9 341.022 217.9C340.138 217.9 339.547 218 339.247 218.2C338.93 218.417 338.772 218.717 338.772 219.1V220.85H343.147ZM349.412 215.9H358.237V218.3H353.062V228H349.412V215.9ZM363.75 228.25C362.616 228.25 361.766 228.15 361.2 227.95C360.65 227.733 360.258 227.358 360.025 226.825C359.808 226.275 359.7 225.458 359.7 224.375C359.7 223.408 359.816 222.65 360.05 222.1C360.3 221.55 360.691 221.158 361.225 220.925C361.775 220.675 362.525 220.55 363.475 220.55H367.575V219.725C367.575 219.208 367.5 218.825 367.35 218.575C367.216 218.325 366.958 218.15 366.575 218.05C366.208 217.95 365.65 217.9 364.9 217.9C363.866 217.9 362.45 218 360.65 218.2V215.9C361.966 215.733 363.508 215.65 365.275 215.65C366.825 215.65 368.016 215.767 368.85 216C369.7 216.233 370.308 216.633 370.675 217.2C371.041 217.767 371.225 218.592 371.225 219.675V228H367.65V226.9C367.366 227.383 366.983 227.725 366.5 227.925C366.016 228.142 365.1 228.25 363.75 228.25ZM365.175 225.975C365.908 225.975 366.433 225.95 366.75 225.9C366.983 225.867 367.141 225.817 367.225 225.75C367.325 225.683 367.408 225.575 367.475 225.425C367.541 225.308 367.575 225.133 367.575 224.9V222.55H365.075C364.508 222.55 364.108 222.592 363.875 222.675C363.641 222.742 363.483 222.892 363.4 223.125C363.316 223.342 363.275 223.733 363.275 224.3C363.275 224.85 363.316 225.233 363.4 225.45C363.483 225.667 363.641 225.808 363.875 225.875C364.125 225.942 364.558 225.975 365.175 225.975ZM377.336 218.3H373.336V215.9H384.986V218.3H380.986V228H377.336V218.3ZM392.882 228.25C392.132 228.25 391.516 228.225 391.032 228.175C390.549 228.125 390.032 228.025 389.482 227.875C388.882 227.708 388.399 227.475 388.032 227.175C387.666 226.858 387.357 226.417 387.107 225.85C386.857 225.3 386.732 224.633 386.732 223.85V220.275C386.732 219.475 386.857 218.775 387.107 218.175C387.357 217.575 387.682 217.108 388.082 216.775C388.432 216.492 388.891 216.258 389.457 216.075C390.041 215.875 390.607 215.75 391.157 215.7C391.791 215.667 392.366 215.65 392.882 215.65C393.649 215.65 394.257 215.675 394.707 215.725C395.174 215.758 395.682 215.858 396.232 216.025C396.832 216.208 397.316 216.458 397.682 216.775C398.066 217.092 398.391 217.542 398.657 218.125C398.907 218.725 399.032 219.442 399.032 220.275V223.85C399.032 224.6 398.907 225.258 398.657 225.825C398.424 226.392 398.116 226.833 397.732 227.15C397.399 227.433 396.941 227.667 396.357 227.85C395.791 228.017 395.232 228.125 394.682 228.175C394.182 228.225 393.582 228.25 392.882 228.25ZM392.882 225.975C393.566 225.975 394.082 225.925 394.432 225.825C394.782 225.708 395.024 225.533 395.157 225.3C395.307 225.067 395.382 224.725 395.382 224.275V219.7C395.382 219.033 395.207 218.567 394.857 218.3C394.507 218.033 393.849 217.9 392.882 217.9C391.916 217.9 391.257 218.033 390.907 218.3C390.557 218.567 390.382 219.033 390.382 219.7V224.275C390.382 224.725 390.449 225.067 390.582 225.3C390.732 225.533 390.982 225.708 391.332 225.825C391.682 225.925 392.199 225.975 392.882 225.975ZM401.877 215.9H405.327V217.1C405.544 216.567 405.969 216.192 406.602 215.975C407.236 215.758 408.177 215.65 409.427 215.65C410.477 215.65 411.319 215.733 411.952 215.9C412.602 216.067 413.094 216.333 413.427 216.7C413.744 217.067 413.961 217.475 414.077 217.925C414.194 218.358 414.252 218.958 414.252 219.725V223.7C414.252 224.9 414.077 225.825 413.727 226.475C413.377 227.125 412.836 227.583 412.102 227.85C411.386 228.117 410.402 228.25 409.152 228.25C407.952 228.25 407.086 228.15 406.552 227.95C406.019 227.75 405.677 227.358 405.527 226.775V233.2H401.877V215.9ZM408.027 225.975C408.744 225.975 409.286 225.925 409.652 225.825C410.019 225.725 410.269 225.55 410.402 225.3C410.536 225.05 410.602 224.675 410.602 224.175V219.7C410.602 219.15 410.544 218.758 410.427 218.525C410.311 218.275 410.077 218.108 409.727 218.025C409.377 217.942 408.802 217.9 408.002 217.9C407.319 217.9 406.794 217.958 406.427 218.075C406.077 218.192 405.836 218.375 405.702 218.625C405.586 218.875 405.527 219.233 405.527 219.7V224.175C405.527 224.675 405.586 225.05 405.702 225.3C405.836 225.55 406.077 225.725 406.427 225.825C406.777 225.925 407.311 225.975 408.027 225.975ZM428.798 228.25C427.365 228.25 426.223 228.15 425.373 227.95C424.54 227.75 423.882 227.3 423.398 226.6C422.932 225.883 422.698 224.808 422.698 223.375V218.3C422.698 216.817 422.932 215.6 423.398 214.65C423.882 213.7 424.523 212.958 425.323 212.425C426.14 211.892 427.148 211.45 428.348 211.1L429.598 210.775C430.282 210.608 431.032 210.417 431.848 210.2C432.665 209.967 433.365 209.733 433.948 209.5V212.6C432.998 213.067 431.382 213.55 429.098 214.05C428.115 214.267 427.332 214.525 426.748 214.825C426.182 215.108 425.757 215.5 425.473 216C425.19 216.5 425.048 217.158 425.048 217.975V219.325H425.073C425.307 218.342 425.79 217.625 426.523 217.175C427.257 216.725 428.407 216.5 429.973 216.5C431.34 216.5 432.373 216.683 433.073 217.05C433.79 217.417 434.273 217.967 434.523 218.7C434.773 219.433 434.898 220.442 434.898 221.725V223.375C434.898 224.558 434.732 225.5 434.398 226.2C434.065 226.883 433.457 227.4 432.573 227.75C431.69 228.083 430.432 228.25 428.798 228.25ZM428.848 225.975C429.582 225.975 430.115 225.908 430.448 225.775C430.782 225.642 430.998 225.442 431.098 225.175C431.198 224.908 431.248 224.508 431.248 223.975V220.875C431.248 220.258 431.198 219.817 431.098 219.55C430.998 219.267 430.79 219.067 430.473 218.95C430.157 218.833 429.64 218.775 428.923 218.775C428.173 218.775 427.615 218.85 427.248 219C426.898 219.133 426.657 219.358 426.523 219.675C426.407 219.975 426.348 220.417 426.348 221V223.975C426.348 224.492 426.407 224.892 426.523 225.175C426.657 225.442 426.898 225.642 427.248 225.775C427.615 225.908 428.148 225.975 428.848 225.975ZM441.167 228.25C440.033 228.25 439.183 228.15 438.617 227.95C438.067 227.733 437.675 227.358 437.442 226.825C437.225 226.275 437.117 225.458 437.117 224.375C437.117 223.408 437.233 222.65 437.467 222.1C437.717 221.55 438.108 221.158 438.642 220.925C439.192 220.675 439.942 220.55 440.892 220.55H444.992V219.725C444.992 219.208 444.917 218.825 444.767 218.575C444.633 218.325 444.375 218.15 443.992 218.05C443.625 217.95 443.067 217.9 442.317 217.9C441.283 217.9 439.867 218 438.067 218.2V215.9C439.383 215.733 440.925 215.65 442.692 215.65C444.242 215.65 445.433 215.767 446.267 216C447.117 216.233 447.725 216.633 448.092 217.2C448.458 217.767 448.642 218.592 448.642 219.675V228H445.067V226.9C444.783 227.383 444.4 227.725 443.917 227.925C443.433 228.142 442.517 228.25 441.167 228.25ZM442.592 225.975C443.325 225.975 443.85 225.95 444.167 225.9C444.4 225.867 444.558 225.817 444.642 225.75C444.742 225.683 444.825 225.575 444.892 225.425C444.958 225.308 444.992 225.133 444.992 224.9V222.55H442.492C441.925 222.55 441.525 222.592 441.292 222.675C441.058 222.742 440.9 222.892 440.817 223.125C440.733 223.342 440.692 223.733 440.692 224.3C440.692 224.85 440.733 225.233 440.817 225.45C440.9 225.667 441.058 225.808 441.292 225.875C441.542 225.942 441.975 225.975 442.592 225.975ZM451.853 215.9H455.503V220.55H460.078V215.9H463.728V228H460.078V222.95H455.503V228H451.853V215.9ZM466.916 215.9H470.566V220.8C470.833 220.8 471.05 220.767 471.216 220.7C471.383 220.617 471.55 220.475 471.716 220.275L475.216 215.9H479.016L474.166 221.5C474.85 221.817 475.516 222.442 476.166 223.375L479.391 228H475.191L472.516 224.05C472.216 223.617 471.933 223.342 471.666 223.225C471.4 223.108 471.033 223.05 470.566 223.05V228H466.916V215.9ZM486.803 228.25C486.053 228.25 485.437 228.225 484.953 228.175C484.47 228.125 483.953 228.025 483.403 227.875C482.803 227.708 482.32 227.475 481.953 227.175C481.587 226.858 481.278 226.417 481.028 225.85C480.778 225.3 480.653 224.633 480.653 223.85V220.275C480.653 219.475 480.778 218.775 481.028 218.175C481.278 217.575 481.603 217.108 482.003 216.775C482.353 216.492 482.812 216.258 483.378 216.075C483.962 215.875 484.528 215.75 485.078 215.7C485.712 215.667 486.287 215.65 486.803 215.65C487.57 215.65 488.178 215.675 488.628 215.725C489.095 215.758 489.603 215.858 490.153 216.025C490.753 216.208 491.237 216.458 491.603 216.775C491.987 217.092 492.312 217.542 492.578 218.125C492.828 218.725 492.953 219.442 492.953 220.275V223.85C492.953 224.6 492.828 225.258 492.578 225.825C492.345 226.392 492.037 226.833 491.653 227.15C491.32 227.433 490.862 227.667 490.278 227.85C489.712 228.017 489.153 228.125 488.603 228.175C488.103 228.225 487.503 228.25 486.803 228.25ZM486.803 225.975C487.487 225.975 488.003 225.925 488.353 225.825C488.703 225.708 488.945 225.533 489.078 225.3C489.228 225.067 489.303 224.725 489.303 224.275V219.7C489.303 219.033 489.128 218.567 488.778 218.3C488.428 218.033 487.77 217.9 486.803 217.9C485.837 217.9 485.178 218.033 484.828 218.3C484.478 218.567 484.303 219.033 484.303 219.7V224.275C484.303 224.725 484.37 225.067 484.503 225.3C484.653 225.533 484.903 225.708 485.253 225.825C485.603 225.925 486.12 225.975 486.803 225.975ZM495.798 215.9H502.498C503.815 215.9 504.807 216.008 505.473 216.225C506.14 216.442 506.573 216.758 506.773 217.175C506.99 217.575 507.098 218.133 507.098 218.85V219.275C507.098 219.908 506.915 220.383 506.548 220.7C506.198 221.017 505.632 221.258 504.848 221.425V221.525C505.765 221.675 506.473 221.967 506.973 222.4C507.473 222.833 507.723 223.392 507.723 224.075V224.8C507.723 225.9 507.315 226.708 506.498 227.225C505.682 227.742 504.34 228 502.473 228H495.798V215.9ZM501.223 220.675C501.873 220.675 502.357 220.633 502.673 220.55C502.99 220.467 503.207 220.342 503.323 220.175C503.44 219.992 503.498 219.725 503.498 219.375V219.075C503.498 218.758 503.348 218.517 503.048 218.35C502.765 218.183 502.132 218.1 501.148 218.1H499.398V220.675H501.223ZM501.298 225.8C502.315 225.8 503.032 225.692 503.448 225.475C503.865 225.258 504.073 224.917 504.073 224.45V224C504.073 223.683 503.99 223.442 503.823 223.275C503.673 223.108 503.415 222.992 503.048 222.925C502.682 222.858 502.14 222.825 501.423 222.825H499.398V225.8H501.298Z" fill="#0D0D0D"/>
<path d="M300 183.861H307.647V192.792H300V183.861Z" fill="#6E79F7"/>
<path d="M310.705 174.931H318.352V192.792H310.705V174.931Z" fill="#6E79F7"/>
<path d="M321.411 166H329.057V192.792H321.411V166Z" fill="#6E79F7"/>
<path d="M474.588 192.792L466.36 183.534V192.792H462.874V172.103H466.36V181.539L474.619 172.103H478.993L469.756 182.462L479.146 192.792H474.588Z" fill="url(#paint0_linear_111_13)"/>
<path d="M495.167 178.056C494.617 177.024 493.852 176.25 492.873 175.734C491.895 175.198 490.763 174.931 489.478 174.931C488.071 174.931 486.817 175.238 485.716 175.853C484.615 176.469 483.748 177.342 483.116 178.473C482.504 179.604 482.199 180.914 482.199 182.402C482.199 183.891 482.504 185.211 483.116 186.362C483.748 187.493 484.615 188.366 485.716 188.981C486.817 189.596 488.071 189.904 489.478 189.904C491.375 189.904 492.914 189.388 494.097 188.356C495.279 187.324 496.003 185.925 496.268 184.159H488.285V181.45H500V184.099C499.776 185.707 499.184 187.185 498.226 188.535C497.288 189.884 496.054 190.966 494.525 191.779C493.016 192.573 491.334 192.97 489.478 192.97C487.48 192.97 485.655 192.524 484.003 191.631C482.352 190.718 481.036 189.458 480.058 187.85C479.099 186.243 478.62 184.427 478.62 182.402C478.62 180.378 479.099 178.562 480.058 176.955C481.036 175.347 482.352 174.097 484.003 173.204C485.675 172.291 487.5 171.835 489.478 171.835C491.742 171.835 493.75 172.38 495.504 173.472C497.278 174.544 498.562 176.072 499.358 178.056H495.167Z" fill="url(#paint1_linear_111_13)"/>
<path d="M358.023 182.164C359.165 182.363 360.133 182.948 360.928 183.921C361.724 184.893 362.121 185.994 362.121 187.225C362.121 188.277 361.836 189.229 361.265 190.083C360.714 190.916 359.909 191.581 358.849 192.077C357.788 192.553 356.555 192.792 355.148 192.792H346.645V172.103H354.75C356.198 172.103 357.442 172.341 358.482 172.817C359.522 173.293 360.307 173.938 360.837 174.752C361.367 175.546 361.632 176.439 361.632 177.431C361.632 178.622 361.306 179.614 360.653 180.408C360.001 181.202 359.124 181.787 358.023 182.164ZM350.131 180.795H354.444C355.586 180.795 356.473 180.547 357.105 180.051C357.758 179.535 358.084 178.8 358.084 177.848C358.084 176.915 357.758 176.191 357.105 175.675C356.473 175.139 355.586 174.871 354.444 174.871H350.131V180.795ZM354.842 190.023C356.024 190.023 356.952 189.745 357.625 189.19C358.298 188.634 358.635 187.86 358.635 186.868C358.635 185.856 358.278 185.052 357.564 184.456C356.85 183.861 355.902 183.563 354.719 183.563H350.131V190.023H354.842Z" fill="#0D0D0D"/>
<path d="M378.726 188.564H369.826L368.296 192.792H364.656L372.273 172.073H376.31L383.926 192.792H380.256L378.726 188.564ZM377.748 185.796L374.291 176.181L370.804 185.796H377.748Z" fill="#0D0D0D"/>
<path d="M404.702 192.792H401.216L390.724 177.342V192.792H387.238V172.073H390.724L401.216 187.493V172.073H404.702V192.792Z" fill="#0D0D0D"/>
<path d="M420.996 192.792L412.768 183.534V192.792H409.281V172.103H412.768V181.539L421.027 172.103H425.401L416.163 182.462L425.553 192.792H420.996Z" fill="#0D0D0D"/>
<path d="M432.124 172.103V192.792H428.637V172.103H432.124Z" fill="#0D0D0D"/>
<path d="M447.744 192.792L442.85 184.516H440.189V192.792H436.702V172.103H444.043C445.674 172.103 447.05 172.38 448.172 172.936C449.314 173.492 450.16 174.236 450.71 175.169C451.281 176.101 451.567 177.143 451.567 178.294C451.567 179.644 451.159 180.874 450.343 181.986C449.548 183.077 448.314 183.821 446.642 184.218L451.903 192.792H447.744ZM440.189 181.807H444.043C445.348 181.807 446.326 181.49 446.979 180.854C447.652 180.219 447.988 179.366 447.988 178.294C447.988 177.223 447.662 176.389 447.009 175.794C446.357 175.179 445.368 174.871 444.043 174.871H440.189V181.807Z" fill="#0D0D0D"/>
<path d="M457.434 193C456.802 193 456.272 192.792 455.844 192.375C455.416 191.958 455.202 191.442 455.202 190.827C455.202 190.212 455.416 189.696 455.844 189.279C456.272 188.862 456.802 188.654 457.434 188.654C458.046 188.654 458.566 188.862 458.994 189.279C459.423 189.696 459.637 190.212 459.637 190.827C459.637 191.442 459.423 191.958 458.994 192.375C458.566 192.792 458.046 193 457.434 193Z" fill="#0D0D0D"/>
<defs>
<linearGradient id="paint0_linear_111_13" x1="432.99" y1="170.05" x2="446.849" y2="201.801" gradientUnits="userSpaceOnUse">
<stop stop-color="#6E79F7"/>
<stop offset="1" stop-color="#3A95FF"/>
</linearGradient>
<linearGradient id="paint1_linear_111_13" x1="432.99" y1="170.05" x2="446.849" y2="201.801" gradientUnits="userSpaceOnUse">
<stop stop-color="#6E79F7"/>
<stop offset="1" stop-color="#3A95FF"/>
</linearGradient>
</defs>
</svg>
